<!DOCTYPE svg PUBLIC "-//W3C//DTD SVG 1.1//EN" "http://www.w3.org/Graphics/SVG/1.1/DTD/svg11.dtd">
<!-- Uploaded to: SVG Repo, www.svgrepo.com, Transformed by: SVG Repo Mixer Tools -->
<svg height="64px" width="64px" version="1.1" id="Layer_1" xmlns="http://www.w3.org/2000/svg" xmlns:xlink="http://www.w3.org/1999/xlink" viewBox="0 0 392.558 392.558" xml:space="preserve" fill="#000000">
<g id="SVGRepo_bgCarrier" stroke-width="0"/>
<g id="SVGRepo_tracerCarrier" stroke-linecap="round" stroke-linejoin="round"/>
<g id="SVGRepo_iconCarrier"> <path style="fill:#FFFFFF;" d="M72.841,26.186c-5.883-5.883-15.451-5.883-21.269,0l-8.857,8.857 C-2.73,80.489,30.95,191.034,116.284,276.432s195.814,118.949,241.325,73.503l8.857-8.857c5.883-5.883,5.883-15.451,0-21.333 l-77.253-77.253c-5.883-5.883-15.451-5.883-21.269,0l-35.297,35.297c-20.234,20.234-61.996,10.214-94.966-22.82 s-43.055-74.667-22.82-94.966l35.297-35.297c5.883-5.883,5.883-15.451,0-21.269L72.841,26.186z"/> <path style="fill:#56ACE0;" d="M300.332,348.642c-32.129,0-71.564-14.675-109.834-39.822c4.784,0.84,9.568,1.293,14.222,1.293 c17.261,0,32.129-5.883,43.248-16.937l30.578-30.578l67.75,67.749l-4.073,4.073C332.785,343.923,318.627,348.642,300.332,348.642 L300.332,348.642z M83.702,202.283c-15.515-23.725-27.216-47.903-33.745-70.853c-10.343-36.008-7.434-65.487,8.016-81.002 l4.073-4.073l67.685,67.685l-30.578,30.578C84.736,159.228,79.758,179.98,83.702,202.283z"/> <g> <path style="fill:#194F82;" d="M220.882,104.473h45.188c6.012,0,10.925-4.848,10.925-10.925c0-6.077-4.848-10.925-10.925-10.925 h-18.941l41.956-41.956c4.267-4.267,4.267-11.119,0-15.386l0,0c-4.267-4.267-11.119-4.267-15.386,0l-41.956,41.956V48.295 c0-6.012-4.848-10.925-10.925-10.925c-6.077,0-10.925,4.848-10.925,10.925v45.188C210.021,99.624,214.87,104.473,220.882,104.473z"/> <path style="fill:#194F82;" d="M314.296,121.992h18.941l-41.956,41.956c-4.267,4.267-4.267,11.119,0,15.386l0,0 c4.267,4.267,11.119,4.267,15.386,0l41.956-41.956v18.941c0,6.012,4.848,10.925,10.925,10.925s10.925-4.848,10.925-10.925v-45.188 c0-6.012-4.848-10.925-10.925-10.925H314.36c-6.012,0-10.925,4.848-10.925,10.925C303.435,117.143,308.284,121.992,314.296,121.992 z"/> <path style="fill:#194F82;" d="M381.851,304.36l-77.253-77.253c-14.352-14.352-37.689-14.352-52.105,0l-35.297,35.297 c-9.762,9.762-39.24,2.069-64.129-22.82s-32.582-54.368-22.82-64.129l35.297-35.297c14.352-14.352,14.352-37.689,0-52.105 L88.292,10.8C73.94-3.552,50.603-3.552,36.187,10.8l-8.986,8.792C-28.46,75.253,3.863,194.784,100.769,291.754 c96.97,96.905,216.436,129.228,272.162,73.568l8.857-8.857C396.138,342.113,396.138,318.776,381.851,304.36z M366.401,341.079 l-8.857,8.857c-45.446,45.446-155.992,11.766-241.39-73.503S-2.795,80.489,42.716,35.107l8.857-8.857 c5.883-5.883,15.451-5.883,21.269,0l17.907,17.907L58.554,76.352c-4.267,4.267-4.267,11.119,0,15.386s11.119,4.267,15.386,0 l32.194-32.194L124.3,77.709l-15.257,15.192c-4.267,4.267-4.267,11.119,0,15.386c4.267,4.267,11.119,4.267,15.386,0l15.192-15.192 l10.279,10.279c5.883,5.883,5.883,15.451,0,21.269l-35.297,35.297c-20.234,20.234-10.214,61.996,22.82,94.966 s74.731,43.055,94.966,22.82l35.297-35.297c5.883-5.883,15.451-5.883,21.269,0l77.253,77.253 C372.284,325.628,372.284,335.196,366.401,341.079z"/> </g> </g>
</svg>